<?xml version="1.0" encoding="UTF-8" standalone="no"?>
<!-- Created with Inkscape (http://www.inkscape.org/) -->

<svg
   width="210mm"
   height="297mm"
   viewBox="0 0 420.00001 593.99998"
   version="1.1"
   id="svg23255"
   inkscape:version="1.1.2 (0a00cf5339, 2022-02-04)"
   sodipodi:docname="3.svg"
   xmlns:inkscape="http://www.inkscape.org/namespaces/inkscape"
   xmlns:sodipodi="http://sodipodi.sourceforge.net/DTD/sodipodi-0.dtd"
   xmlns="http://www.w3.org/2000/svg"
   xmlns:svg="http://www.w3.org/2000/svg">
  <sodipodi:namedview
     id="namedview23257"
     pagecolor="#ffffff"
     bordercolor="#666666"
     borderopacity="1.0"
     inkscape:pageshadow="2"
     inkscape:pageopacity="0.0"
     inkscape:pagecheckerboard="0"
     inkscape:document-units="mm"
     showgrid="false"
     inkscape:zoom="2.5620931"
     inkscape:cx="125.87365"
     inkscape:cy="303.07252"
     inkscape:window-width="3840"
     inkscape:window-height="2103"
     inkscape:window-x="0"
     inkscape:window-y="0"
     inkscape:window-maximized="1"
     inkscape:current-layer="layer1"
     inkscape:snap-global="false"
     scale-x="2" />
  <defs
     id="defs23252" />
  <g
     inkscape:label="Warstwa 1"
     inkscape:groupmode="layer"
     id="layer1">
    <path
       style="fill:#eeeeec;fill-opacity:1;stroke:#000000;stroke-width:0.264583px;stroke-linecap:butt;stroke-linejoin:miter;stroke-opacity:1"
       d="m 45.122064,13.456838 h 19.43312 V 131.31894 H 166.97927 v 32.12077 h -1.50742 l -0.0896,117.21195 h -19.4317 l 0.0593,-40.96375 h -0.0593 v -0.0593 h -0.91652 v 0.0593 h -3.34292 v -0.0593 h -2.0701 v -15.20244 h 6.32954 l 0.0593,-56.99415 h -2.45427 v -3.99234 h -20.32071 v 11.20904 h -9.61178 V 163.43971 H 44.117714 v -32.12077 h 1.00435 V 69.238498 h -7.21677 v -15.35131 h 7.21677 z"
       id="path69770" />
    <path
       style="fill:none;stroke:#000000;stroke-width:0.264583px;stroke-linecap:butt;stroke-linejoin:miter;stroke-opacity:1"
       d="m 111.43476,153.26571 h 12.36239 v 5.70789 h -12.36239 z"
       id="path10373" />
    <path
       style="fill:none;stroke:#000000;stroke-width:0.264583px;stroke-linecap:butt;stroke-linejoin:miter;stroke-opacity:1"
       d="m 111.43476,153.82803 h 3.31294 v 0.59125 h -3.31294 v 0.56197 h 3.31294 v 0.56091 h -3.31294 v 0.56233 h 3.31294 v 0.59124 h -3.31294 v 0.56233 h 3.31294 v 0.56197 h -3.31294 v 0.56232 h 3.31294 v 0.59125 -5.70789"
       id="path10375" />
    <path
       style="fill:none;stroke:#000000;stroke-width:0.264583px;stroke-linecap:butt;stroke-linejoin:miter;stroke-opacity:1"
       d="m 113.07588,158.91433 0.0152,-5.64862 0.266,0.41345"
       id="path10377" />
    <path
       style="fill:none;stroke:#000000;stroke-width:0.264583px;stroke-linecap:butt;stroke-linejoin:miter;stroke-opacity:1"
       d="m 115.42679,153.26571 v 5.70789 -0.59125 h 4.37797 v -0.56232 h -4.37797 v -0.56197 h 4.37797 v -0.56233 h -4.37797 v -0.59124 h 4.37797 v -0.56233 h -4.37797 v -0.56091 h 4.37797 v -0.56197 h -4.37797 v -0.59125 h 4.37797 v -0.56232 5.70789"
       id="path10379" />
    <path
       style="fill:none;stroke:#000000;stroke-width:0.264583px;stroke-linecap:butt;stroke-linejoin:miter;stroke-opacity:1"
       d="m 117.61507,153.26571 v 5.70789 l -0.26564,-0.41346"
       id="path10381" />
    <path
       style="fill:none;stroke:#000000;stroke-width:0.264583px;stroke-linecap:butt;stroke-linejoin:miter;stroke-opacity:1"
       d="m 120.48421,153.26571 v 5.70789 h 3.31294 v -0.59125 h -3.31294 v -0.56232 h 3.31294 v -0.56197 h -3.31294 v -0.56233 h 3.31294 v -0.59124 h -3.31294 v -0.56233 h 3.31294 v -0.56091 h -3.31294 v -0.56197 h 3.31294 v -0.59125 h -3.31294"
       id="path10383" />
    <path
       style="fill:none;stroke:#000000;stroke-width:0.264583px;stroke-linecap:butt;stroke-linejoin:miter;stroke-opacity:1"
       d="m 122.1271,158.91433 0.0138,-5.64862 0.26599,0.41345"
       id="path10385" />
    <path
       style="fill:#babdb6;fill-opacity:0.813397;stroke:none;stroke-width:0.264583px;stroke-linecap:butt;stroke-linejoin:miter;stroke-opacity:1"
       d="m 45.175794,125.02266 c 3.96971,0.0985 6.85089,-0.0235 10.36601,0.0466 l 0.14031,6.24966 h 8.87307 V 13.456838 h -19.43312 v 40.43035 h -7.21677 v 15.35131 h 7.21677 z"
       id="p_kompania_1_C_02"
       sodipodi:nodetypes="ccccccccccc" />
    <path
       style="fill:#babdb6;fill-opacity:0.813397;stroke:none;stroke-width:0.264583px;stroke-linecap:butt;stroke-linejoin:miter;stroke-opacity:1"
       d="m 145.95054,280.65166 h 19.43171 l 0.0731,-117.44346 c -6.23123,-0.0114 -13.11202,-0.003 -19.32558,-0.031 l -0.17922,61.24906 h -6.32954 v 15.20244 l 6.32955,-3e-5 z"
       id="p_kompania_1_B_02"
       sodipodi:nodetypes="ccccccccc" />
    <path
       style="font-variation-settings:normal;opacity:1;vector-effect:none;fill:#babdb6;fill-opacity:0.813397;stroke:none;stroke-width:0.264583px;stroke-linecap:butt;stroke-linejoin:miter;stroke-miterlimit:4;stroke-dasharray:none;stroke-dashoffset:0;stroke-opacity:1;-inkscape-stroke:none;stop-color:#000000;stop-opacity:1"
       d="m 55.179054,125.28616 v 6.03278 h -3.31293 l 0.002,-6.04573 z"
       id="p_toaleta_1_C_02" />
    <path
       style="fill:#babdb6;fill-opacity:0.813397;stroke:none;stroke-width:0.264799px;stroke-linecap:butt;stroke-linejoin:miter;stroke-opacity:1"
       d="m 64.465584,132.35398 v 11.41718 h 23.73024 v -11.41718 z"
       id="p_salaH_1_B_02" />
    <path
       style="fill:#babdb6;fill-opacity:0.813397;stroke:none;stroke-width:0.268399px;stroke-linecap:butt;stroke-linejoin:miter;stroke-opacity:1"
       d="m 88.453054,132.35398 h 21.945026 v 11.41718 c 0,0 -21.945026,0 -21.945026,0 z"
       id="p_salaO_1_B_02" />
    <path
       style="fill:#babdb6;fill-opacity:0.813397;stroke:none;stroke-width:0.267589px;stroke-linecap:butt;stroke-linejoin:miter;stroke-opacity:1"
       d="m 105.43209,150.98785 h 5.23361 v 11.41718 c 0,0 -5.23361,0 -5.23361,0 z"
       id="p_201_1_B_02" />
    <path
       style="fill:#babdb6;fill-opacity:0.813397;stroke:none;stroke-width:0.264583px;stroke-linecap:butt;stroke-linejoin:miter;stroke-opacity:1"
       d="m 99.545094,150.98785 h 5.707586 v 11.41718 c 0,0 -5.707586,0 -5.707586,0 z"
       id="p_202_1_B_02" />
    <path
       style="fill:#babdb6;fill-opacity:0.813397;stroke:none;stroke-width:0.27233px;stroke-linecap:butt;stroke-linejoin:miter;stroke-opacity:1"
       d="m 93.925344,150.98785 h 5.42071 v 11.41718 h -5.42071 z"
       id="p_204_1_B_02" />
    <path
       style="fill:#babdb6;fill-opacity:0.813397;stroke:none;stroke-width:0.265718px;stroke-linecap:butt;stroke-linejoin:miter;stroke-opacity:1"
       d="m 60.220044,150.98785 h 5.48872 v 11.41718 h -5.48872 z"
       id="p_207_1_B_02" />
    <path
       style="fill:#babdb6;fill-opacity:0.813397;stroke:none;stroke-width:0.264583px;stroke-linecap:butt;stroke-linejoin:miter;stroke-opacity:1"
       d="m 45.152404,150.98785 h 14.81808 v 11.41718 h -14.81808 z"
       id="p_208_1_B_02" />
    <path
       id="p_REKTORAT_1_B_02"
       style="fill:#babdb6;fill-opacity:0.813397;stroke:none;stroke-width:0.999999px;stroke-linecap:butt;stroke-linejoin:miter;stroke-opacity:1"
       d="m 434.13477,500.23633 0.29101,44.97851 h 37.92774 v 70.0293 c 49.11702,1.20867 101.65371,0.67653 154.48437,0.69141 l 0.35352,-115.69922 z"
       transform="scale(0.26458333)" />
    <path
       style="fill:#babdb6;fill-opacity:0.813397;stroke:none;stroke-width:0.264583px;stroke-linecap:butt;stroke-linejoin:miter;stroke-opacity:1"
       d="m 45.152404,139.21649 v 5.1759 h 9.13906 v -5.1759 z"
       id="p_209A_1_B_02" />
    <path
       style="fill:#babdb6;fill-opacity:0.813397;stroke:none;stroke-width:0.275431px;stroke-linecap:butt;stroke-linejoin:miter;stroke-opacity:1"
       d="m 45.152404,144.62946 h 9.13906 v 6.05707 h -9.13906 z"
       id="p_209_1_B_02" />
    <path
       style="fill:#babdb6;fill-opacity:0.813397;stroke:none;stroke-width:0.265854px;stroke-linecap:butt;stroke-linejoin:miter;stroke-opacity:1"
       d="m 65.927994,150.98785 v 11.41718 h 22.24699 v -11.41718 z"
       id="p_salaA_1_B_02" />
    <path
       style="fill:#babdb6;fill-opacity:0.813397;stroke:none;stroke-width:0.267038px;stroke-linecap:butt;stroke-linejoin:miter;stroke-opacity:1"
       d="m 88.338664,150.98785 h 5.42264 v 11.41718 h -5.42264 z"
       id="p_205_1_B_02" />
    <path
       style="fill:#000000;fill-opacity:1;stroke:#000000;stroke-width:0.264583px;stroke-linecap:butt;stroke-linejoin:miter;stroke-opacity:1"
       d="m 107.47931,150.66529 v 0.76904 h 1.68558 v -0.76904 z"
       id="d_201_1_B_02" />
    <path
       style="fill:#000000;fill-opacity:1;stroke:#000000;stroke-width:0.264583px;stroke-linecap:butt;stroke-linejoin:miter;stroke-opacity:1"
       d="m 100.15289,150.66529 v 0.76904 h 1.68558 v -0.76904 z"
       id="d_202_1_B_02" />
    <path
       style="fill:#000000;fill-opacity:1;stroke:#000000;stroke-width:0.264583px;stroke-linecap:butt;stroke-linejoin:miter;stroke-opacity:1"
       d="m 95.653294,150.66529 v 0.76904 h 1.68558 v -0.76904 z"
       id="d_204_1_B_02" />
    <path
       style="fill:#000000;fill-opacity:1;stroke:#000000;stroke-width:0.264583px;stroke-linecap:butt;stroke-linejoin:miter;stroke-opacity:1"
       d="m 88.866514,150.66529 v 0.76904 h 1.68558 v -0.76904 z"
       id="d_205_1_B_02" />
    <path
       style="fill:#000000;fill-opacity:1;stroke:#000000;stroke-width:0.264583px;stroke-linecap:butt;stroke-linejoin:miter;stroke-opacity:1"
       d="m 89.722034,143.44184 v 0.76904 h 1.68558 v -0.76904 z"
       id="d_214_1_B_02" />
    <path
       style="fill:#000000;fill-opacity:1;stroke:#000000;stroke-width:0.264583px;stroke-linecap:butt;stroke-linejoin:miter;stroke-opacity:1"
       d="m 84.354884,143.44184 v 0.76904 h 1.68558 v -0.76904 z"
       id="d_213_1_B_02" />
    <path
       style="fill:#000000;fill-opacity:1;stroke:#000000;stroke-width:0.264583px;stroke-linecap:butt;stroke-linejoin:miter;stroke-opacity:1"
       d="m 104.68762,143.44184 v 0.76904 h 1.68558 v -0.76904 z"
       id="d_215_1_B_02" />
    <path
       style="fill:#000000;fill-opacity:1;stroke:#000000;stroke-width:0.264583px;stroke-linecap:butt;stroke-linejoin:miter;stroke-opacity:1"
       d="m 69.700804,143.44184 v 0.76904 h 1.68558 v -0.76904 z"
       id="d_212_1_B_02" />
    <path
       style="fill:#000000;fill-opacity:1;stroke:#000000;stroke-width:0.264583px;stroke-linecap:butt;stroke-linejoin:miter;stroke-opacity:1"
       d="m 67.150044,150.66529 v 0.76904 h 1.68558 v -0.76904 z"
       id="d_206_1_B_02" />
    <path
       style="fill:#000000;fill-opacity:1;stroke:#000000;stroke-width:0.264583px;stroke-linecap:butt;stroke-linejoin:miter;stroke-opacity:1"
       d="m 61.333534,150.66529 v 0.76904 h 1.68558 v -0.76904 z"
       id="d_207_1_B_02" />
    <path
       style="fill:#000000;fill-opacity:1;stroke:#000000;stroke-width:0.264583px;stroke-linecap:butt;stroke-linejoin:miter;stroke-opacity:1"
       d="m 55.401144,150.66529 v 0.76904 h 1.68558 v -0.76904 z"
       id="d_208_1_B_02" />
    <path
       style="fill:#000000;fill-opacity:1;stroke:#000000;stroke-width:0.264583px;stroke-linecap:butt;stroke-linejoin:miter;stroke-opacity:1"
       d="m 111.58186,143.77081 v 0.76904 h 1.68558 v -0.76904 z"
       id="d_216_1_B_02" />
    <path
       style="fill:#000000;fill-opacity:1;stroke:#000000;stroke-width:0.264583px;stroke-linecap:butt;stroke-linejoin:miter;stroke-opacity:1"
       d="m 111.08938,146.4214 h -0.76904 v 1.68558 h 0.76904 z"
       id="d_200_1_B_02" />
    <path
       style="fill:#000000;fill-opacity:1;stroke:#000000;stroke-width:0.264583px;stroke-linecap:butt;stroke-linejoin:miter;stroke-opacity:1"
       d="m 125.31037,146.4214 h -0.76904 v 1.68558 h 0.76904 z"
       id="path1101" />
    <rect
       style="opacity:1;fill:#000000;fill-opacity:1;stroke:none;stroke-width:0.25;stroke-opacity:1"
       id="rect1965"
       width="1.0588162"
       height="2.2454205"
       x="120.2522"
       y="65.695824"
       transform="rotate(38.945313)" />
    <rect
       style="opacity:1;fill:#000000;fill-opacity:1;stroke:none;stroke-width:0.25;stroke-opacity:1"
       id="rect2474"
       width="1.0588162"
       height="2.2454205"
       x="53.681759"
       y="140.7446" />
    <rect
       style="opacity:1;fill:#000000;fill-opacity:1;stroke:none;stroke-width:0.25;stroke-opacity:1"
       id="rect2636"
       width="1.0588162"
       height="2.2454205"
       x="53.681759"
       y="146.67763" />
    <path
       style="fill:none;fill-rule:evenodd;stroke:#000000;stroke-width:0.529167px;stroke-linecap:butt;stroke-linejoin:miter;stroke-opacity:1"
       d="m 65.26565,251.14883 -12.598747,-63.40682 48.123087,6.1961 c -6.30835,30.06892 -26.887106,2.19278 -35.52434,57.21072 z"
       id="path2707"
       sodipodi:nodetypes="cccc" />
  </g>
</svg>
